<svg width="33" height="93" viewBox="0 0 33 93" fill="none" xmlns="http://www.w3.org/2000/svg">
<path d="M32.5995 0C30.7334 0.207345 29.6258 2.37748 28.4978 3.59564C26.6394 5.60275 24.1463 7.30216 22.5317 9.48183C20.2974 12.4982 18.1242 15.7347 15.8199 18.6973C14.4546 20.4527 14.3519 22.489 13.4228 24.4503C12.6054 26.176 11.9196 27.8589 11.5051 29.7239C10.5777 33.8975 9.22963 38.4123 9.10803 42.6682C9.00425 46.3007 9.10803 49.9545 9.10803 53.5883C9.10803 58.3108 8.42169 63.6602 9.34774 68.2905C9.93208 71.2121 9.56119 74.2245 10.4398 77.0798C11.1002 79.2264 10.6615 82.1878 11.7448 84.1379C12.4746 85.4515 12.5706 88.3331 12.9167 89.8909C13.1709 91.0348 12.9675 90.7964 12.3574 90.2372C10.6407 88.6635 8.53984 87.3866 6.65767 86.029C4.56603 84.5202 -1.97404 80.9149 0.585039 81.2348C2.72727 81.5026 5.30251 85.5742 7.40343 86.7747C8.21168 87.2366 8.73033 88.1097 9.58745 88.5859C10.96 89.3484 11.967 90.596 13.1831 91.5689C15.5999 93.5023 14.4706 91.8705 15.5802 89.6512C17.3159 86.1799 20.0942 83.3957 21.9458 80.0629C22.9738 78.2125 24.1391 76.4026 25.1685 74.5496C25.7591 73.4865 26.8465 70.2259 26.8465 72.3922" stroke="#8C5608" stroke-width="5" stroke-linecap="round"/>
</svg>
