<svg width="97" height="57" viewBox="0 0 97 57" fill="none" xmlns="http://www.w3.org/2000/svg">
<path d="M0.0628662 10.0218C2.61703 9.73799 4.85053 6.68756 6.92608 5.33047C9.0829 3.92024 11.98 3.19013 14.4843 2.59387C19.1668 1.47899 24.1678 0.63916 28.9926 0.63916C37.8568 0.63916 45.4022 2.61919 52.8836 6.89424C60.8219 11.4304 69.4601 17.6523 74.7329 25.2685C77.305 28.9838 79.5949 33.0819 81.7699 36.9968C83.5255 40.1569 86.3002 45.5568 86.8087 49.116C87.0335 50.6895 88.4159 52.0201 88.4159 53.4164C88.4159 55.0498 86.69 53.8074 85.2884 53.8074C80.0195 53.8074 73.2812 50.1217 68.2606 48.5079C67.5972 48.2947 62.8842 47.084 63.8299 46.8138C65.2846 46.3982 67.3548 46.7704 68.8688 46.7704C72.0944 46.7704 74.74 47.8106 77.8604 48.2907C80.0755 48.6315 81.5594 50.4392 83.7246 50.6798C87.4097 51.0893 89.7754 56.802 89.9797 51.2879C90.1128 47.6934 92.4362 44.4014 93.0638 40.9497C93.4738 38.6946 93.4003 36.3224 94.0628 34.0865C94.7648 31.7175 95.2532 29.2121 95.8004 26.7889C96.0768 25.5649 96.6517 22.1587 95.8004 25.4423C94.3224 31.1429 93.6871 36.9951 93.281 42.861C93.0378 46.3738 93.1072 49.8975 93.1072 53.4164C93.1072 54.3686 92.3253 58.1162 92.3253 55.3711" stroke="#8C5608" stroke-width="5" stroke-linecap="round"/>
</svg>
