<svg width="66" height="100" viewBox="0 0 66 100" fill="none" xmlns="http://www.w3.org/2000/svg">
<path d="M37.1697 0C44.3604 0.484038 50.4959 8.65262 54.1475 11.8383C57.9039 15.1153 63.7395 22.1707 64.4784 26.1994C65.843 33.6398 66 41.0623 66 48.7115C66 52.2139 62.9265 55.4781 60.5543 58.512C58.6907 60.8955 58.0752 65.7191 53.667 67.2452C50.1206 68.4729 47.5808 72.672 45.0179 74.6683C41.424 77.4677 38.2666 80.4197 34.2867 82.9648C25.8896 88.3346 15.2301 92.0957 4.73558 95.6279C-5.30878 99.0085 5.03278 85.3659 6.89785 82.9648C7.18246 82.5984 10.0689 78.4002 10.4216 79.326C12.1224 83.7911 7.40152 92.171 4.33516 96.1616C2.91398 98.0111 -2.87064 101.165 1.77246 99.5578C4.78578 98.5146 7.72274 98.79 11.3025 98.2478C24.8454 96.1966 66.9861 96.0645 53.0264 96.0645" stroke="#8C5608" stroke-width="5" stroke-linecap="round"/>
</svg>
