<svg width="60" height="73" viewBox="0 0 60 73" fill="none" xmlns="http://www.w3.org/2000/svg">
<path d="M45.0217 0C51.8046 3.59091 62.7568 14.5347 57.8286 23.4056C54.5429 29.3197 50.4929 32.0537 44.1385 34.4459C40.409 35.85 35.4768 37.7848 33.6379 32.9248C32.8143 30.7481 31.1202 25.695 34.6193 25.6136C39.8839 25.4912 44.1385 28.2092 44.1385 33.5627C44.1385 37.4446 44.8328 41.9369 43.2553 45.4863C40.7193 51.1921 34.4921 55.7426 29.1727 58.7347C23.189 62.1006 13.943 65.359 7.04288 65.359C1.34884 65.359 4.0723 60.3088 5.96338 56.5267C6.48789 55.4776 8.44634 53.237 8.26959 53.4844C6.86186 55.4553 5.5436 58.0259 3.90251 59.667C3.38782 60.1817 -1.50914 65.6283 0.467729 66.1931C2.45158 66.7599 5.3918 66.2422 7.43543 66.2422C10.4094 66.2422 15.7428 68.261 18.5249 69.5788C19.5081 70.0446 24.4768 72.8609 22.941 72.2285C20.6406 71.2813 18.3195 70.5999 15.8752 69.9714C11.2263 68.776 6.75511 67.3068 2.18512 66.2913C-0.873193 65.6116 0.199667 64.2517 1.30189 62.2677C2.8576 59.4674 4.61331 55.4284 6.60126 53.0428C8.92859 50.25 11.459 39.6428 11.459 43.2782C11.459 46.8249 9.38348 50.079 7.92611 52.9938" stroke="#8C5608" stroke-width="5" stroke-linecap="round"/>
</svg>
