<svg width="119" height="44" viewBox="0 0 119 44" fill="none" xmlns="http://www.w3.org/2000/svg">
<path d="M0 21.7263C0.442108 18.1894 6.93614 13.6857 9.38766 11.2342C13.9231 6.69877 18.2313 2.92954 24.5429 0.987506C34.7058 -2.13953 50.7822 2.1612 51.8469 13.8725C52.3373 19.2674 45.6127 29.6064 43.5637 20.0083C42.5278 15.156 42.5774 12.4056 45.2817 9.02531C47.2474 6.5682 53.4924 5.56017 56.326 4.3008C60.4411 2.47185 68.2248 4.05537 72.8924 4.05537C85.6222 4.05537 98.3888 12.6191 104.369 23.3829C106.072 26.4487 106.569 29.5751 107.989 32.7706C108.94 34.9104 111.425 40.125 111.425 42.1582C111.425 45.7593 88.7591 38.2927 93.8766 38.2927C98.3521 38.2927 102.176 38.5467 106.516 39.3358C109.722 39.9187 115.965 45.5754 115.965 39.9494C115.965 31.7897 118.174 23.9593 118.174 16.2041" stroke="#8C5608" stroke-width="5" stroke-linecap="round"/>
</svg>
